<mxfile host="Electron" modified="2024-05-30T13:12:04.198Z" agent="Mozilla/5.0 (Windows NT 10.0; Win64; x64) AppleWebKit/537.36 (KHTML, like Gecko) draw.io/24.4.8 Chrome/124.0.6367.207 Electron/30.0.6 Safari/537.36" etag="krcXMI-AvYQgSVLZwiNm" version="24.4.8" type="device">
  <diagram name="Seite-1" id="mrp9XBmPVXelt326irSC">
    <mxGraphModel dx="2074" dy="1197" grid="1" gridSize="10" guides="1" tooltips="1" connect="1" arrows="1" fold="1" page="1" pageScale="1" pageWidth="2336" pageHeight="1654" math="0" shadow="0">
      <root>
        <mxCell id="0" />
        <mxCell id="1" parent="0" />
        <mxCell id="gFK525PEp-ipY-3nxmcJ-1" value="" style="endArrow=classic;html=1;rounded=0;" edge="1" parent="1">
          <mxGeometry width="50" height="50" relative="1" as="geometry">
            <mxPoint x="400" y="600" as="sourcePoint" />
            <mxPoint x="1440" y="600" as="targetPoint" />
          </mxGeometry>
        </mxCell>
        <mxCell id="gFK525PEp-ipY-3nxmcJ-2" value="" style="endArrow=classic;html=1;rounded=0;" edge="1" parent="1">
          <mxGeometry width="50" height="50" relative="1" as="geometry">
            <mxPoint x="400" y="600" as="sourcePoint" />
            <mxPoint x="400" y="80" as="targetPoint" />
          </mxGeometry>
        </mxCell>
        <mxCell id="gFK525PEp-ipY-3nxmcJ-3" value="" style="rounded=0;whiteSpace=wrap;html=1;fillColor=#fff2cc;strokeColor=#d6b656;" vertex="1" parent="1">
          <mxGeometry x="400" y="280" width="120" height="320" as="geometry" />
        </mxCell>
        <mxCell id="gFK525PEp-ipY-3nxmcJ-4" value="" style="rounded=0;whiteSpace=wrap;html=1;fillColor=#f8cecc;strokeColor=#b85450;" vertex="1" parent="1">
          <mxGeometry x="600" y="280" width="120" height="320" as="geometry" />
        </mxCell>
        <mxCell id="gFK525PEp-ipY-3nxmcJ-5" value="" style="rounded=0;whiteSpace=wrap;html=1;fillColor=#fff2cc;strokeColor=#d6b656;" vertex="1" parent="1">
          <mxGeometry x="720" y="280" width="120" height="320" as="geometry" />
        </mxCell>
        <mxCell id="gFK525PEp-ipY-3nxmcJ-6" value="" style="endArrow=none;html=1;rounded=0;exitX=0;exitY=0;exitDx=0;exitDy=0;" edge="1" parent="1" source="gFK525PEp-ipY-3nxmcJ-3">
          <mxGeometry width="50" height="50" relative="1" as="geometry">
            <mxPoint x="1020" y="430" as="sourcePoint" />
            <mxPoint x="560" y="120" as="targetPoint" />
          </mxGeometry>
        </mxCell>
        <mxCell id="gFK525PEp-ipY-3nxmcJ-7" value="" style="endArrow=none;html=1;rounded=0;entryX=1;entryY=0;entryDx=0;entryDy=0;" edge="1" parent="1" target="gFK525PEp-ipY-3nxmcJ-4">
          <mxGeometry width="50" height="50" relative="1" as="geometry">
            <mxPoint x="560" y="120" as="sourcePoint" />
            <mxPoint x="720" y="120" as="targetPoint" />
          </mxGeometry>
        </mxCell>
        <mxCell id="gFK525PEp-ipY-3nxmcJ-8" value="" style="endArrow=none;html=1;rounded=0;exitX=0;exitY=0;exitDx=0;exitDy=0;" edge="1" parent="1">
          <mxGeometry width="50" height="50" relative="1" as="geometry">
            <mxPoint x="720" y="280" as="sourcePoint" />
            <mxPoint x="880" y="120" as="targetPoint" />
          </mxGeometry>
        </mxCell>
        <mxCell id="gFK525PEp-ipY-3nxmcJ-9" value="" style="endArrow=none;dashed=1;html=1;dashPattern=1 3;strokeWidth=2;rounded=0;exitX=1;exitY=0;exitDx=0;exitDy=0;" edge="1" parent="1" source="gFK525PEp-ipY-3nxmcJ-3">
          <mxGeometry width="50" height="50" relative="1" as="geometry">
            <mxPoint x="1020" y="430" as="sourcePoint" />
            <mxPoint x="520" y="160" as="targetPoint" />
          </mxGeometry>
        </mxCell>
        <mxCell id="gFK525PEp-ipY-3nxmcJ-10" value="" style="endArrow=none;dashed=1;html=1;dashPattern=1 3;strokeWidth=2;rounded=0;" edge="1" parent="1">
          <mxGeometry width="50" height="50" relative="1" as="geometry">
            <mxPoint x="400" y="160" as="sourcePoint" />
            <mxPoint x="1040" y="160" as="targetPoint" />
          </mxGeometry>
        </mxCell>
        <mxCell id="gFK525PEp-ipY-3nxmcJ-11" value="" style="endArrow=none;html=1;rounded=0;" edge="1" parent="1">
          <mxGeometry width="50" height="50" relative="1" as="geometry">
            <mxPoint x="560" y="630" as="sourcePoint" />
            <mxPoint x="560" y="600" as="targetPoint" />
          </mxGeometry>
        </mxCell>
        <mxCell id="gFK525PEp-ipY-3nxmcJ-12" value="" style="endArrow=none;html=1;rounded=0;" edge="1" parent="1">
          <mxGeometry width="50" height="50" relative="1" as="geometry">
            <mxPoint x="720" y="620" as="sourcePoint" />
            <mxPoint x="720" y="590" as="targetPoint" />
          </mxGeometry>
        </mxCell>
        <mxCell id="gFK525PEp-ipY-3nxmcJ-13" value="" style="endArrow=none;html=1;rounded=0;" edge="1" parent="1">
          <mxGeometry width="50" height="50" relative="1" as="geometry">
            <mxPoint x="880" y="630" as="sourcePoint" />
            <mxPoint x="880" y="600" as="targetPoint" />
          </mxGeometry>
        </mxCell>
        <mxCell id="gFK525PEp-ipY-3nxmcJ-14" value="" style="endArrow=classic;html=1;rounded=0;" edge="1" parent="1">
          <mxGeometry relative="1" as="geometry">
            <mxPoint x="400" y="640" as="sourcePoint" />
            <mxPoint x="560" y="640" as="targetPoint" />
            <Array as="points" />
          </mxGeometry>
        </mxCell>
        <mxCell id="gFK525PEp-ipY-3nxmcJ-15" value="Label" style="edgeLabel;resizable=0;html=1;;align=center;verticalAlign=middle;" connectable="0" vertex="1" parent="gFK525PEp-ipY-3nxmcJ-14">
          <mxGeometry relative="1" as="geometry" />
        </mxCell>
        <mxCell id="gFK525PEp-ipY-3nxmcJ-16" value="Periode" style="edgeLabel;html=1;align=center;verticalAlign=middle;resizable=0;points=[];" vertex="1" connectable="0" parent="gFK525PEp-ipY-3nxmcJ-14">
          <mxGeometry x="0.0458" y="-3" relative="1" as="geometry">
            <mxPoint as="offset" />
          </mxGeometry>
        </mxCell>
        <mxCell id="gFK525PEp-ipY-3nxmcJ-19" value="" style="endArrow=classic;html=1;rounded=0;" edge="1" parent="1">
          <mxGeometry relative="1" as="geometry">
            <mxPoint x="560" y="640" as="sourcePoint" />
            <mxPoint x="720" y="640" as="targetPoint" />
            <Array as="points" />
          </mxGeometry>
        </mxCell>
        <mxCell id="gFK525PEp-ipY-3nxmcJ-20" value="Label" style="edgeLabel;resizable=0;html=1;;align=center;verticalAlign=middle;" connectable="0" vertex="1" parent="gFK525PEp-ipY-3nxmcJ-19">
          <mxGeometry relative="1" as="geometry" />
        </mxCell>
        <mxCell id="gFK525PEp-ipY-3nxmcJ-21" value="Periode" style="edgeLabel;html=1;align=center;verticalAlign=middle;resizable=0;points=[];" vertex="1" connectable="0" parent="gFK525PEp-ipY-3nxmcJ-19">
          <mxGeometry x="0.0458" y="-3" relative="1" as="geometry">
            <mxPoint as="offset" />
          </mxGeometry>
        </mxCell>
        <mxCell id="gFK525PEp-ipY-3nxmcJ-22" value="&lt;font style=&quot;font-size: 24px;&quot;&gt;0&lt;/font&gt;" style="text;html=1;align=center;verticalAlign=middle;whiteSpace=wrap;rounded=0;" vertex="1" parent="1">
          <mxGeometry x="270" y="260" width="60" height="30" as="geometry" />
        </mxCell>
        <mxCell id="gFK525PEp-ipY-3nxmcJ-23" value="&lt;font style=&quot;font-size: 18px;&quot;&gt;255&lt;/font&gt;" style="text;html=1;align=center;verticalAlign=middle;whiteSpace=wrap;rounded=0;" vertex="1" parent="1">
          <mxGeometry x="270" y="100" width="60" height="30" as="geometry" />
        </mxCell>
        <mxCell id="gFK525PEp-ipY-3nxmcJ-24" value="" style="endArrow=none;dashed=1;html=1;rounded=0;" edge="1" parent="1">
          <mxGeometry width="50" height="50" relative="1" as="geometry">
            <mxPoint x="400" y="120" as="sourcePoint" />
            <mxPoint x="560" y="120" as="targetPoint" />
          </mxGeometry>
        </mxCell>
        <mxCell id="gFK525PEp-ipY-3nxmcJ-26" value="&lt;font style=&quot;font-size: 18px;&quot;&gt;OCR0A (196)&lt;/font&gt;" style="text;html=1;align=center;verticalAlign=middle;whiteSpace=wrap;rounded=0;" vertex="1" parent="1">
          <mxGeometry x="220" y="140" width="160" height="30" as="geometry" />
        </mxCell>
        <mxCell id="gFK525PEp-ipY-3nxmcJ-30" value="" style="endArrow=classic;html=1;rounded=0;entryX=0.983;entryY=0.913;entryDx=0;entryDy=0;entryPerimeter=0;" edge="1" parent="1" target="gFK525PEp-ipY-3nxmcJ-3">
          <mxGeometry relative="1" as="geometry">
            <mxPoint x="400" y="570" as="sourcePoint" />
            <mxPoint x="500" y="570" as="targetPoint" />
          </mxGeometry>
        </mxCell>
        <mxCell id="gFK525PEp-ipY-3nxmcJ-31" value="Label" style="edgeLabel;resizable=0;html=1;;align=center;verticalAlign=middle;" connectable="0" vertex="1" parent="gFK525PEp-ipY-3nxmcJ-30">
          <mxGeometry relative="1" as="geometry" />
        </mxCell>
        <mxCell id="gFK525PEp-ipY-3nxmcJ-32" value="Duty Cycle" style="edgeLabel;html=1;align=center;verticalAlign=middle;resizable=0;points=[];" vertex="1" connectable="0" parent="gFK525PEp-ipY-3nxmcJ-30">
          <mxGeometry x="0.0295" y="-3" relative="1" as="geometry">
            <mxPoint as="offset" />
          </mxGeometry>
        </mxCell>
        <mxCell id="gFK525PEp-ipY-3nxmcJ-33" value="" style="endArrow=classic;html=1;rounded=0;entryX=0.983;entryY=0.913;entryDx=0;entryDy=0;entryPerimeter=0;" edge="1" parent="1">
          <mxGeometry relative="1" as="geometry">
            <mxPoint x="602" y="570" as="sourcePoint" />
            <mxPoint x="720" y="572" as="targetPoint" />
          </mxGeometry>
        </mxCell>
        <mxCell id="gFK525PEp-ipY-3nxmcJ-34" value="Label" style="edgeLabel;resizable=0;html=1;;align=center;verticalAlign=middle;" connectable="0" vertex="1" parent="gFK525PEp-ipY-3nxmcJ-33">
          <mxGeometry relative="1" as="geometry" />
        </mxCell>
        <mxCell id="gFK525PEp-ipY-3nxmcJ-35" value="Duty Cycle" style="edgeLabel;html=1;align=center;verticalAlign=middle;resizable=0;points=[];" vertex="1" connectable="0" parent="gFK525PEp-ipY-3nxmcJ-33">
          <mxGeometry x="0.0295" y="-3" relative="1" as="geometry">
            <mxPoint as="offset" />
          </mxGeometry>
        </mxCell>
        <mxCell id="gFK525PEp-ipY-3nxmcJ-37" value="" style="endArrow=classic;html=1;rounded=0;entryX=0.983;entryY=0.913;entryDx=0;entryDy=0;entryPerimeter=0;" edge="1" parent="1">
          <mxGeometry relative="1" as="geometry">
            <mxPoint x="720" y="570" as="sourcePoint" />
            <mxPoint x="838" y="572" as="targetPoint" />
          </mxGeometry>
        </mxCell>
        <mxCell id="gFK525PEp-ipY-3nxmcJ-38" value="Label" style="edgeLabel;resizable=0;html=1;;align=center;verticalAlign=middle;" connectable="0" vertex="1" parent="gFK525PEp-ipY-3nxmcJ-37">
          <mxGeometry relative="1" as="geometry" />
        </mxCell>
        <mxCell id="gFK525PEp-ipY-3nxmcJ-39" value="Duty Cycle" style="edgeLabel;html=1;align=center;verticalAlign=middle;resizable=0;points=[];" vertex="1" connectable="0" parent="gFK525PEp-ipY-3nxmcJ-37">
          <mxGeometry x="0.0295" y="-3" relative="1" as="geometry">
            <mxPoint as="offset" />
          </mxGeometry>
        </mxCell>
        <mxCell id="gFK525PEp-ipY-3nxmcJ-40" value="" style="endArrow=classic;html=1;rounded=0;" edge="1" parent="1">
          <mxGeometry relative="1" as="geometry">
            <mxPoint x="720" y="640" as="sourcePoint" />
            <mxPoint x="880" y="640" as="targetPoint" />
            <Array as="points" />
          </mxGeometry>
        </mxCell>
        <mxCell id="gFK525PEp-ipY-3nxmcJ-41" value="Label" style="edgeLabel;resizable=0;html=1;;align=center;verticalAlign=middle;" connectable="0" vertex="1" parent="gFK525PEp-ipY-3nxmcJ-40">
          <mxGeometry relative="1" as="geometry" />
        </mxCell>
        <mxCell id="gFK525PEp-ipY-3nxmcJ-42" value="Periode" style="edgeLabel;html=1;align=center;verticalAlign=middle;resizable=0;points=[];" vertex="1" connectable="0" parent="gFK525PEp-ipY-3nxmcJ-40">
          <mxGeometry x="0.0458" y="-3" relative="1" as="geometry">
            <mxPoint as="offset" />
          </mxGeometry>
        </mxCell>
        <mxCell id="gFK525PEp-ipY-3nxmcJ-43" value="" style="rounded=0;whiteSpace=wrap;html=1;fillColor=#f8cecc;strokeColor=#b85450;" vertex="1" parent="1">
          <mxGeometry x="920" y="280" width="120" height="320" as="geometry" />
        </mxCell>
        <mxCell id="gFK525PEp-ipY-3nxmcJ-44" value="" style="endArrow=none;html=1;rounded=0;" edge="1" parent="1">
          <mxGeometry width="50" height="50" relative="1" as="geometry">
            <mxPoint x="1040" y="620" as="sourcePoint" />
            <mxPoint x="1040" y="590" as="targetPoint" />
          </mxGeometry>
        </mxCell>
        <mxCell id="gFK525PEp-ipY-3nxmcJ-47" value="" style="endArrow=classic;html=1;rounded=0;entryX=0.983;entryY=0.913;entryDx=0;entryDy=0;entryPerimeter=0;" edge="1" parent="1">
          <mxGeometry relative="1" as="geometry">
            <mxPoint x="922" y="570" as="sourcePoint" />
            <mxPoint x="1040" y="572" as="targetPoint" />
          </mxGeometry>
        </mxCell>
        <mxCell id="gFK525PEp-ipY-3nxmcJ-48" value="Label" style="edgeLabel;resizable=0;html=1;;align=center;verticalAlign=middle;" connectable="0" vertex="1" parent="gFK525PEp-ipY-3nxmcJ-47">
          <mxGeometry relative="1" as="geometry" />
        </mxCell>
        <mxCell id="gFK525PEp-ipY-3nxmcJ-49" value="Duty Cycle" style="edgeLabel;html=1;align=center;verticalAlign=middle;resizable=0;points=[];" vertex="1" connectable="0" parent="gFK525PEp-ipY-3nxmcJ-47">
          <mxGeometry x="0.0295" y="-3" relative="1" as="geometry">
            <mxPoint as="offset" />
          </mxGeometry>
        </mxCell>
        <mxCell id="gFK525PEp-ipY-3nxmcJ-50" value="" style="endArrow=classic;html=1;rounded=0;" edge="1" parent="1">
          <mxGeometry relative="1" as="geometry">
            <mxPoint x="880" y="640" as="sourcePoint" />
            <mxPoint x="1040" y="640" as="targetPoint" />
            <Array as="points" />
          </mxGeometry>
        </mxCell>
        <mxCell id="gFK525PEp-ipY-3nxmcJ-51" value="Label" style="edgeLabel;resizable=0;html=1;;align=center;verticalAlign=middle;" connectable="0" vertex="1" parent="gFK525PEp-ipY-3nxmcJ-50">
          <mxGeometry relative="1" as="geometry" />
        </mxCell>
        <mxCell id="gFK525PEp-ipY-3nxmcJ-52" value="Periode" style="edgeLabel;html=1;align=center;verticalAlign=middle;resizable=0;points=[];" vertex="1" connectable="0" parent="gFK525PEp-ipY-3nxmcJ-50">
          <mxGeometry x="0.0458" y="-3" relative="1" as="geometry">
            <mxPoint as="offset" />
          </mxGeometry>
        </mxCell>
        <mxCell id="gFK525PEp-ipY-3nxmcJ-53" value="" style="endArrow=none;html=1;rounded=0;entryX=1;entryY=0;entryDx=0;entryDy=0;" edge="1" parent="1">
          <mxGeometry width="50" height="50" relative="1" as="geometry">
            <mxPoint x="880" y="120" as="sourcePoint" />
            <mxPoint x="1040" y="280" as="targetPoint" />
          </mxGeometry>
        </mxCell>
        <mxCell id="gFK525PEp-ipY-3nxmcJ-54" value="" style="endArrow=none;dashed=1;html=1;dashPattern=1 3;strokeWidth=2;rounded=0;" edge="1" parent="1">
          <mxGeometry width="50" height="50" relative="1" as="geometry">
            <mxPoint x="600" y="280" as="sourcePoint" />
            <mxPoint x="600" y="160" as="targetPoint" />
          </mxGeometry>
        </mxCell>
        <mxCell id="gFK525PEp-ipY-3nxmcJ-55" value="" style="endArrow=none;dashed=1;html=1;dashPattern=1 3;strokeWidth=2;rounded=0;" edge="1" parent="1">
          <mxGeometry width="50" height="50" relative="1" as="geometry">
            <mxPoint x="839" y="280" as="sourcePoint" />
            <mxPoint x="839" y="160" as="targetPoint" />
          </mxGeometry>
        </mxCell>
        <mxCell id="gFK525PEp-ipY-3nxmcJ-56" value="" style="endArrow=none;dashed=1;html=1;dashPattern=1 3;strokeWidth=2;rounded=0;" edge="1" parent="1">
          <mxGeometry width="50" height="50" relative="1" as="geometry">
            <mxPoint x="920" y="280" as="sourcePoint" />
            <mxPoint x="920" y="160" as="targetPoint" />
          </mxGeometry>
        </mxCell>
      </root>
    </mxGraphModel>
  </diagram>
</mxfile>
